<mxfile host="app.diagrams.net" modified="2024-07-07T14:58:55.635Z" agent="Mozilla/5.0 (Windows NT 10.0; Win64; x64) AppleWebKit/537.36 (KHTML, like Gecko) Chrome/126.0.0.0 Safari/537.36" version="24.6.4" etag="DgJJK10HU6uwws_KGChd" type="github">
  <diagram name="Page-1" id="eovN-4z9HB7-FLf9IqhV">
    <mxGraphModel>
      <root>
        <mxCell id="0" />
        <mxCell id="1" parent="0" />
      </root>
    </mxGraphModel>
  </diagram>
</mxfile>
